<mxfile host="65bd71144e">
    <diagram id="R2lEEEUBdFMjLlhIrx00" name="Page-1">
        <mxGraphModel dx="858" dy="865" grid="1" gridSize="10" guides="1" tooltips="1" connect="1" arrows="1" fold="1" page="1" pageScale="1" pageWidth="850" pageHeight="1100" math="0" shadow="0" extFonts="Permanent Marker^https://fonts.googleapis.com/css?family=Permanent+Marker">
            <root>
                <mxCell id="0"/>
                <mxCell id="1" parent="0"/>
                <mxCell id="10" style="edgeStyle=none;html=1;" edge="1" parent="1" source="3EcbSpmSApTOxm3k4qjI-1" target="2">
                    <mxGeometry relative="1" as="geometry"/>
                </mxCell>
                <mxCell id="11" style="edgeStyle=none;html=1;" edge="1" parent="1" source="3EcbSpmSApTOxm3k4qjI-1" target="3">
                    <mxGeometry relative="1" as="geometry"/>
                </mxCell>
                <mxCell id="12" style="edgeStyle=none;html=1;" edge="1" parent="1" source="3EcbSpmSApTOxm3k4qjI-1" target="4">
                    <mxGeometry relative="1" as="geometry"/>
                </mxCell>
                <mxCell id="3EcbSpmSApTOxm3k4qjI-1" value="Game" style="html=1;" parent="1" vertex="1">
                    <mxGeometry x="230" y="140" width="110" height="50" as="geometry"/>
                </mxCell>
                <mxCell id="13" style="edgeStyle=none;html=1;" edge="1" parent="1" source="2" target="5">
                    <mxGeometry relative="1" as="geometry"/>
                </mxCell>
                <mxCell id="17" style="edgeStyle=none;html=1;" edge="1" parent="1" source="21" target="9">
                    <mxGeometry relative="1" as="geometry"/>
                </mxCell>
                <mxCell id="18" style="edgeStyle=none;html=1;" edge="1" parent="1" source="21" target="8">
                    <mxGeometry relative="1" as="geometry"/>
                </mxCell>
                <mxCell id="19" style="edgeStyle=none;html=1;" edge="1" parent="1" source="21" target="7">
                    <mxGeometry relative="1" as="geometry"/>
                </mxCell>
                <mxCell id="20" style="edgeStyle=none;html=1;" edge="1" parent="1" source="21" target="6">
                    <mxGeometry relative="1" as="geometry"/>
                </mxCell>
                <mxCell id="22" style="edgeStyle=none;html=1;" edge="1" parent="1" source="2" target="21">
                    <mxGeometry relative="1" as="geometry"/>
                </mxCell>
                <mxCell id="2" value="Level" style="html=1;" vertex="1" parent="1">
                    <mxGeometry x="425" y="310" width="110" height="50" as="geometry"/>
                </mxCell>
                <mxCell id="23" style="edgeStyle=none;html=1;" edge="1" parent="1" source="3" target="5">
                    <mxGeometry relative="1" as="geometry"/>
                </mxCell>
                <mxCell id="3" value="LevelSelector" style="html=1;" vertex="1" parent="1">
                    <mxGeometry x="40" y="310" width="110" height="50" as="geometry"/>
                </mxCell>
                <mxCell id="16" style="edgeStyle=none;html=1;dashed=1;" edge="1" parent="1" source="4" target="2">
                    <mxGeometry relative="1" as="geometry"/>
                </mxCell>
                <mxCell id="4" value="TitleScreen" style="html=1;" vertex="1" parent="1">
                    <mxGeometry x="230" y="310" width="110" height="50" as="geometry"/>
                </mxCell>
                <mxCell id="5" value="Audiohandler" style="html=1;" vertex="1" parent="1">
                    <mxGeometry x="425" y="140" width="110" height="50" as="geometry"/>
                </mxCell>
                <mxCell id="6" value="Player" style="html=1;" vertex="1" parent="1">
                    <mxGeometry x="500" y="450" width="110" height="50" as="geometry"/>
                </mxCell>
                <mxCell id="7" value="Würfel-Logik" style="html=1;" vertex="1" parent="1">
                    <mxGeometry x="450" y="550" width="110" height="50" as="geometry"/>
                </mxCell>
                <mxCell id="8" value="Minimap" style="html=1;" vertex="1" parent="1">
                    <mxGeometry x="300" y="610" width="110" height="50" as="geometry"/>
                </mxCell>
                <mxCell id="27" style="edgeStyle=none;html=1;" edge="1" parent="1" source="9" target="26">
                    <mxGeometry relative="1" as="geometry"/>
                </mxCell>
                <mxCell id="9" value="Würfel-Seite" style="html=1;" vertex="1" parent="1">
                    <mxGeometry x="110" y="450" width="110" height="50" as="geometry"/>
                </mxCell>
                <mxCell id="21" value="Würfel" style="html=1;" vertex="1" parent="1">
                    <mxGeometry x="300" y="450" width="110" height="50" as="geometry"/>
                </mxCell>
                <mxCell id="24" value="Feld Objekte" style="html=1;" vertex="1" parent="1">
                    <mxGeometry x="60" y="680" width="110" height="50" as="geometry"/>
                </mxCell>
                <mxCell id="28" style="edgeStyle=none;html=1;" edge="1" parent="1" source="26" target="24">
                    <mxGeometry relative="1" as="geometry"/>
                </mxCell>
                <mxCell id="26" value="Felder" style="html=1;" vertex="1" parent="1">
                    <mxGeometry x="60" y="580" width="110" height="50" as="geometry"/>
                </mxCell>
            </root>
        </mxGraphModel>
    </diagram>
</mxfile>